<svg width="28" height="58" viewBox="0 0 28 58" fill="none" xmlns="http://www.w3.org/2000/svg">
<g clip-path="url(#clip0_2_22)">
<path d="M22.1294 28.7997L21.3557 29.764L19.2312 32.3929C17.6065 31.1129 15.5554 30.5095 13.5013 30.7073C11.4473 30.905 9.54705 31.8888 8.19295 33.4556L8.10411 33.5597L5.49158 31.4253L4.9079 30.95L14.2502 19.3579C11.2977 19.6522 8.34929 18.7606 6.04715 16.8772L8.16821 14.2437L8.76202 13.5069C10.4062 14.8033 12.4867 15.406 14.5641 15.1876C16.6416 14.9693 18.5534 13.947 19.8959 12.3368L22.5129 14.4723L22.5017 14.4859L23.0955 14.9702L13.9455 26.3156C16.892 26.0275 19.8327 26.92 22.1294 28.7997Z" fill="#01161E" stroke="#01161E" stroke-miterlimit="10"/>
<path d="M17.3194 8.1053C16.3656 8.12364 15.4546 8.5069 14.7716 9.17712C14.0887 9.84734 13.6851 10.7542 13.6429 11.7132L13.6351 11.7053C13.5918 10.761 13.1981 9.86749 12.5317 9.20131C11.8654 8.53514 10.9748 8.14483 10.0362 8.10756C10.9737 8.07166 11.8638 7.68362 12.531 7.01997C13.1982 6.35631 13.5941 5.46519 13.6407 4.52231L13.6497 4.53136C13.7 5.48311 14.1064 6.38045 14.7871 7.04318C15.4678 7.70591 16.3724 8.08494 17.3194 8.10417V8.1053Z" fill="#01161E" stroke="#01161E" stroke-miterlimit="10"/>
<path d="M17.3194 37.7731C16.3656 37.7914 15.4546 38.1747 14.7716 38.8449C14.0887 39.5151 13.6851 40.422 13.6429 41.381L13.6351 41.3731C13.5918 40.4288 13.1981 39.5353 12.5317 38.8691C11.8654 38.2029 10.9748 37.8126 10.0362 37.7754C10.9737 37.7394 11.8638 37.3514 12.531 36.6878C13.1982 36.0241 13.5941 35.133 13.6407 34.1901L13.6497 34.1991C13.7 35.1509 14.1064 36.0482 14.7871 36.711C15.4678 37.3737 16.3724 37.7527 17.3194 37.772V37.7731Z" fill="#01161E" stroke="#01161E" stroke-miterlimit="10"/>
<path d="M14.0006 1.13171C15.6917 1.13126 17.3663 1.46608 18.9288 2.11705C20.4913 2.76801 21.9111 3.72236 23.107 4.92558C24.3029 6.1288 25.2515 7.55732 25.8987 9.12955C26.5459 10.7018 26.8789 12.3869 26.8787 14.0887V31.8101C26.879 34.3732 26.1237 36.8787 24.7086 39.0098C23.2934 41.1408 21.2819 42.8016 18.9285 43.7819C16.5751 44.7623 13.9857 45.0182 11.4878 44.5173C8.98982 44.0164 6.69566 42.7812 4.89553 40.9679C3.69665 39.768 2.74608 38.3409 2.09882 36.769C1.45156 35.1971 1.12044 33.5116 1.12463 31.8101V14.0887C1.12449 12.3871 1.45743 10.7021 2.10445 9.13007C2.75148 7.55799 3.69991 6.12957 4.89558 4.92638C6.09125 3.72319 7.51074 2.76879 9.07298 2.1177C10.6352 1.4666 12.3096 1.13156 14.0006 1.13171ZM14.0006 4.09166e-07C12.1619 -0.00014823 10.3413 0.364164 8.6426 1.07213C6.94391 1.7801 5.40044 2.81786 4.10034 4.12614C2.80024 5.43442 1.76897 6.9876 1.06543 8.69698C0.361887 10.4064 -0.000147665 12.2385 4.51811e-08 14.0887V31.8101C4.51811e-08 33.6602 0.362135 35.4923 1.06573 37.2016C1.76932 38.9109 2.8006 40.464 4.10067 41.7723C6.72628 44.4144 10.2874 45.8988 14.0006 45.8988C15.8393 45.899 17.6601 45.5349 19.359 44.827C21.0579 44.1191 22.6016 43.0814 23.9019 41.7731C25.2022 40.4648 26.2337 38.9116 26.9374 37.2021C27.6412 35.4927 28.0034 33.6604 28.0034 31.8101V14.0887C28.0035 12.2383 27.6414 10.406 26.9377 8.69646C26.234 6.98693 25.2026 5.43365 23.9022 4.12534C22.6019 2.81703 21.0582 1.77932 19.3592 1.07148C17.6603 0.363647 15.8394 -0.000445543 14.0006 4.09166e-07Z" fill="#01161E"/>
<path d="M6.70169 50.9824H6.13937C4.46592 50.9824 3.69555 51.6241 3.1546 52.242L3.46725 50.8613H8.13335C7.83195 51.0673 7.6835 51.2008 6.94236 52.4106L4.25786 56.7949H4.66723C6.56898 56.8073 7.25389 56.2018 7.84432 55.5353L7.53504 56.9159H2.80146C3.10286 56.71 3.25132 56.5764 3.99357 55.3655L6.70169 50.9824Z" fill="#01161E"/>
<path d="M12.9468 56.9159V54.9784C12.371 55.9472 11.3824 57.0382 10.1667 57.0382C9.22874 57.0382 8.53035 56.3354 8.53035 55.4277C8.53035 54.253 9.71009 53.8286 10.8527 53.454C11.9245 53.0908 12.9828 52.775 12.9828 51.8911C12.9828 51.2495 12.4058 50.9586 11.8401 50.9586C11.1294 50.9586 10.5041 51.3581 9.61337 52.2307L8.71366 51.649C9.41206 51.1284 10.3151 50.7436 11.2058 50.7436C12.5172 50.7436 13.905 51.409 13.905 52.9233V55.43C13.905 56.1566 13.9893 56.7982 14.7833 56.9193L12.9468 56.9159ZM10.8527 53.574C10.4645 53.686 10.1235 53.9231 9.88209 54.249C9.64073 54.5749 9.51234 54.9715 9.51665 55.3779C9.51665 56.238 10.2634 56.6613 10.8527 56.6613C12.0808 56.6613 12.9715 54.5178 12.9344 52.9074V52.7942C12.4654 53.3194 11.6591 53.3431 10.8527 53.574Z" fill="#01161E"/>
<path d="M22.2745 56.9159H19.554C20.348 56.7949 20.4323 56.1532 20.4323 55.4266V52.8508C20.4323 51.7486 19.7576 50.9371 18.7836 50.9371C17.7715 50.9371 17.0506 51.6637 16.8718 52.6449V55.43C16.8718 56.1566 16.9561 56.7982 17.7501 56.9193H15.0296C15.8236 56.7982 15.9079 56.1566 15.9079 55.43V52.3178C15.9079 51.8448 15.7752 51.6999 15.5222 51.6999C15.3542 51.7082 15.1883 51.741 15.0296 51.7972C15.6885 51.5583 16.3086 51.2223 16.8695 50.8002V51.6603C17.5308 51.0797 18.3751 50.7537 19.2526 50.7402C20.3952 50.7402 21.3894 51.3694 21.3894 52.9436V55.4266C21.395 56.1532 21.4805 56.7949 22.2745 56.9159Z" fill="#01161E"/>
<path d="M24.3674 55.4266C24.3674 56.1532 24.4518 56.7949 25.2469 56.9159H22.5264C23.3215 56.7949 23.4047 56.1532 23.4047 55.4266V52.302C23.4047 51.83 23.2732 51.684 23.0201 51.684C22.8517 51.6923 22.6854 51.7251 22.5264 51.7814C23.2484 51.5143 23.651 51.297 24.3674 50.7877V55.4266ZM23.1764 49.5417C23.4584 49.3761 23.6914 49.1378 23.8512 48.8514C24.0158 49.138 24.2524 49.3761 24.5373 49.5417C24.2531 49.7033 24.0164 49.9375 23.8512 50.2207C23.6909 49.9373 23.4578 49.7024 23.1764 49.5406V49.5417Z" fill="#01161E"/>
</g>
<defs>
<clipPath id="clip0_2_22">
<rect width="28" height="57.037" fill="white"/>
</clipPath>
</defs>
</svg>
