<svg width="21" height="20" viewBox="0 0 21 20" fill="none" xmlns="http://www.w3.org/2000/svg">
<path d="M10.49 0C4.972 0 0.5 4.473 0.5 9.99C0.5 14.222 3.133 17.84 6.85 19.296C6.762 18.506 6.684 17.29 6.884 16.428C7.066 15.648 8.056 11.462 8.056 11.462C8.056 11.462 7.757 10.863 7.757 9.978C7.757 8.59 8.562 7.553 9.565 7.553C10.418 7.553 10.829 8.193 10.829 8.96C10.829 9.818 10.283 11.099 10.002 12.287C9.767 13.281 10.501 14.092 11.481 14.092C13.256 14.092 14.622 12.22 14.622 9.517C14.622 7.125 12.903 5.453 10.449 5.453C7.606 5.453 5.937 7.585 5.937 9.788C5.937 10.646 6.268 11.567 6.681 12.068C6.7161 12.1057 6.74088 12.1519 6.75297 12.202C6.76505 12.2521 6.76403 12.3044 6.75 12.354C6.674 12.669 6.505 13.348 6.473 13.487C6.429 13.67 6.328 13.709 6.138 13.621C4.891 13.04 4.111 11.216 4.111 9.75C4.111 6.599 6.4 3.705 10.712 3.705C14.178 3.705 16.871 6.174 16.871 9.475C16.871 12.919 14.7 15.688 11.687 15.688C10.674 15.688 9.723 15.163 9.397 14.542L8.774 16.916C8.549 17.784 7.94 18.872 7.533 19.536C8.49111 19.8318 9.48827 19.9818 10.491 19.981C16.008 19.981 20.481 15.508 20.481 9.991C20.481 4.474 16.007 0 10.49 0Z" fill="#01161E"/>
</svg>
