<svg width="19" height="16" viewBox="0 0 19 16" fill="none" xmlns="http://www.w3.org/2000/svg">
<path d="M18.2844 8.53435L11.5344 15.2843C11.391 15.423 11.1994 15.5004 11 15.5004C10.8006 15.5004 10.609 15.423 10.4656 15.2843C10.3248 15.1422 10.2458 14.9501 10.2458 14.75C10.2458 14.5498 10.3248 14.3578 10.4656 14.2156L15.9406 8.74997H1.25C1.05109 8.74997 0.860322 8.67095 0.71967 8.5303C0.579018 8.38965 0.5 8.19888 0.5 7.99997C0.5 7.80106 0.579018 7.61029 0.71967 7.46964C0.860322 7.32899 1.05109 7.24997 1.25 7.24997H15.9406L10.4656 1.78435C10.346 1.63862 10.2849 1.45363 10.2942 1.26534C10.3034 1.07705 10.3824 0.89893 10.5157 0.765629C10.649 0.632328 10.8271 0.553375 11.0154 0.544128C11.2037 0.53488 11.3887 0.595999 11.5344 0.715596L18.2844 7.4656C18.4252 7.60779 18.5042 7.79984 18.5042 7.99997C18.5042 8.20011 18.4252 8.39215 18.2844 8.53435Z" fill="white"/>
</svg>
