<svg width="19" height="18" viewBox="0 0 19 18" fill="none" xmlns="http://www.w3.org/2000/svg">
<path d="M9.5 0C4.52825 0 0.5 4.02825 0.5 9C0.5 13.9718 4.52825 18 9.5 18C14.4718 18 18.5 13.9718 18.5 9C18.5 4.02825 14.4718 0 9.5 0ZM9.5 1.5C10.486 1.49603 11.4631 1.68732 12.3748 2.06282C13.2865 2.43833 14.1149 2.99062 14.8121 3.68785C15.5094 4.38508 16.0617 5.21345 16.4372 6.12519C16.8127 7.03692 17.004 8.01397 17 9C17.004 9.98603 16.8127 10.9631 16.4372 11.8748C16.0617 12.7865 15.5094 13.6149 14.8121 14.3121C14.1149 15.0094 13.2865 15.5617 12.3748 15.9372C11.4631 16.3127 10.486 16.504 9.5 16.5C8.51397 16.504 7.53692 16.3127 6.62519 15.9372C5.71345 15.5617 4.88508 15.0094 4.18785 14.3121C3.49062 13.6149 2.93833 12.7865 2.56282 11.8748C2.18732 10.9631 1.99603 9.98603 2 9C1.99603 8.01397 2.18732 7.03692 2.56282 6.12519C2.93833 5.21345 3.49062 4.38508 4.18785 3.68785C4.88508 2.99062 5.71345 2.43833 6.62519 2.06282C7.53692 1.68732 8.51397 1.49603 9.5 1.5ZM8.3045 5.0625C6.84575 5.0625 5.5745 5.1975 4.367 5.5785C4.0475 5.64225 3.78125 5.883 3.78125 6.3285C3.78125 6.77325 4.10975 7.16625 4.5545 7.101C4.745 7.101 4.874 7.03125 5 7.03125C6.01625 6.77625 7.16225 6.65625 8.3045 6.65625C10.5253 6.65625 12.8045 7.15125 14.3278 8.03925C14.5183 8.10375 14.5828 8.1795 14.7733 8.1795C15.2188 8.1795 15.5293 7.85175 15.5938 7.40625C15.5938 7.02525 15.4032 6.78225 15.1483 6.65625C13.244 5.57775 10.7157 5.0625 8.3045 5.0625ZM8.09375 7.85175C6.761 7.85175 5.8115 8.04225 4.859 8.29725C4.54325 8.4225 4.367 8.61975 4.367 9C4.367 9.3165 4.619 9.633 5 9.633C5.129 9.633 5.1845 9.627 5.375 9.5625C6.0725 9.372 7.03025 9.258 8.04725 9.258C10.1412 9.258 11.9637 9.768 13.2972 10.5938C13.4225 10.6582 13.5522 10.7108 13.742 10.7108C14.123 10.7108 14.375 10.3883 14.375 10.008C14.375 9.753 14.255 9.501 14 9.375C12.35 8.35875 10.253 7.85175 8.09375 7.85175ZM8.3045 10.5938C7.22675 10.5938 6.2045 10.7137 5.1875 10.9688C4.9325 11.0332 4.742 11.2148 4.742 11.5312C4.742 11.7863 4.9415 12.0472 5.258 12.0472C5.3225 12.0472 5.507 11.9767 5.633 11.9767C6.48607 11.7778 7.3588 11.6754 8.23475 11.6715C9.8195 11.6715 11.2692 12.0525 12.4767 12.75C12.6058 12.8145 12.749 12.867 12.875 12.867C13.13 12.867 13.373 12.6765 13.4375 12.4222C13.4375 12.1027 13.2995 11.985 13.109 11.8597C11.7118 11.0332 10.0798 10.5938 8.3045 10.5938Z" fill="#01161E"/>
</svg>
