<svg width="21" height="24" viewBox="0 0 21 24" fill="none" xmlns="http://www.w3.org/2000/svg">
<path d="M17.821 5.562C17.6691 5.48345 17.5213 5.39734 17.378 5.304C16.9617 5.02872 16.5799 4.7044 16.241 4.338C15.392 3.367 15.075 2.382 14.959 1.693H14.963C14.866 1.12 14.906 0.75 14.913 0.75H11.048V15.693C11.048 15.893 11.048 16.092 11.04 16.288C11.04 16.312 11.037 16.334 11.036 16.361C11.036 16.371 11.036 16.383 11.033 16.394V16.403C10.9924 16.939 10.8207 17.4569 10.533 17.9109C10.2453 18.365 9.85037 18.7414 9.38301 19.007C8.89544 19.2844 8.34397 19.4298 7.78301 19.429C5.98301 19.429 4.52301 17.961 4.52301 16.148C4.52301 14.334 5.98301 12.866 7.78301 12.866C8.12401 12.866 8.46301 12.92 8.78701 13.026L8.79201 9.09C7.80803 8.96305 6.80841 9.04147 5.85625 9.3203C4.9041 9.59913 4.02008 10.0723 3.26001 10.71C2.59387 11.2885 2.0338 11.9789 1.60501 12.75C1.44201 13.031 0.826013 14.162 0.752013 15.996C0.705013 17.036 1.01801 18.116 1.16701 18.561V18.571C1.26001 18.833 1.62401 19.729 2.21601 20.484C2.69341 21.09 3.25746 21.6224 3.89001 22.064V22.054L3.89901 22.064C5.76901 23.334 7.84401 23.251 7.84401 23.251C8.20301 23.236 9.40601 23.251 10.772 22.604C12.287 21.886 13.149 20.817 13.149 20.817C13.7001 20.1781 14.1384 19.45 14.445 18.664C14.795 17.744 14.911 16.642 14.911 16.202V8.273C14.958 8.301 15.583 8.714 15.583 8.714C15.583 8.714 16.483 9.291 17.886 9.666C18.892 9.933 20.249 9.99 20.249 9.99V6.153C19.774 6.205 18.809 6.055 17.82 5.563L17.821 5.562Z" fill="#01161E"/>
</svg>
