<svg width="25" height="18" viewBox="0 0 25 18" fill="none" xmlns="http://www.w3.org/2000/svg">
<path d="M24 3.50708C23.8641 3.02231 23.5994 2.58342 23.234 2.23708C22.8583 1.88008 22.3978 1.62471 21.896 1.49508C20.018 1.00008 12.494 1.00008 12.494 1.00008C9.35734 0.964389 6.22144 1.12135 3.10401 1.47008C2.6022 1.60929 2.14257 1.87036 1.76601 2.23008C1.39601 2.58608 1.12801 3.02508 0.988007 3.50608C0.6517 5.31782 0.488299 7.15742 0.500007 9.00008C0.488007 10.8411 0.651007 12.6801 0.988007 14.4941C1.12501 14.9731 1.39201 15.4101 1.76301 15.7631C2.13401 16.1161 2.59601 16.3711 3.10401 16.5061C5.00701 17.0001 12.494 17.0001 12.494 17.0001C15.6347 17.0358 18.7746 16.8789 21.896 16.5301C22.3978 16.4004 22.8583 16.1451 23.234 15.7881C23.5993 15.4418 23.8637 15.0029 23.999 14.5181C24.3441 12.707 24.5119 10.8667 24.5 9.02308C24.526 7.17168 24.3584 5.32264 24 3.50608V3.50708ZM10.102 12.4241V5.57708L16.362 9.00108L10.102 12.4241Z" fill="#01161E"/>
</svg>
